<?xml version="1.0" encoding="UTF-8"?>
<svg id="Layer_1" xmlns="http://www.w3.org/2000/svg" version="1.1" xmlns:xlink="http://www.w3.org/1999/xlink" viewBox="0 0 1146 804">
  <!-- Generator: Adobe Illustrator 30.2.1, SVG Export Plug-In . SVG Version: 2.1.1 Build 1)  -->
  <defs>
    <style>
      .st0 {
        fill: url(#linear-gradient2);
      }

      .st1 {
        fill: #f08d83;
      }

      .st2 {
        fill: #fff;
      }

      .st3 {
        fill: #aed2b2;
      }

      .st4 {
        fill: url(#linear-gradient1);
      }

      .st5 {
        fill: #e86c87;
      }

      .st6 {
        fill: #c5d9aa;
      }

      .st7 {
        fill: #f07d72;
      }

      .st8 {
        fill: none;
        fill-rule: evenodd;
      }

      .st9 {
        fill: #f9d56f;
      }

      .st10 {
        fill: url(#linear-gradient4);
      }

      .st11 {
        fill: url(#linear-gradient5);
      }

      .st12 {
        fill: url(#linear-gradient3);
      }

      .st13 {
        display: none;
      }

      .st14 {
        fill: #f29681;
      }

      .st15 {
        fill: url(#linear-gradient6);
      }

      .st16 {
        fill: #e7dd7c;
      }

      .st17 {
        fill: url(#linear-gradient);
      }
    </style>
    <linearGradient id="linear-gradient" x1="486.85" y1="394.62" x2="499.38" y2="792.01" gradientUnits="userSpaceOnUse">
      <stop offset=".11" stop-color="#f9db6f"/>
      <stop offset=".65" stop-color="#90cec3"/>
      <stop offset=".72" stop-color="#76c6cb"/>
      <stop offset="1" stop-color="#6796bf"/>
    </linearGradient>
    <linearGradient id="linear-gradient1" x1="425.37" y1="398.44" x2="422.17" y2="793.45" gradientUnits="userSpaceOnUse">
      <stop offset=".13" stop-color="#fbda65"/>
      <stop offset=".68" stop-color="#74c3c4"/>
      <stop offset="1" stop-color="#628bb9"/>
    </linearGradient>
    <linearGradient id="linear-gradient2" x1="240.99" y1="148.95" x2="242.85" y2="794.18" gradientUnits="userSpaceOnUse">
      <stop offset=".05" stop-color="#d95975"/>
      <stop offset=".14" stop-color="#ee6b6e"/>
      <stop offset=".5" stop-color="#f8dc6b"/>
      <stop offset=".79" stop-color="#9dd0c2"/>
      <stop offset=".86" stop-color="#88c8c9"/>
      <stop offset="1" stop-color="#6794bd"/>
    </linearGradient>
    <linearGradient id="linear-gradient3" x1="123.86" y1="515.2" x2="126.77" y2="793.67" gradientUnits="userSpaceOnUse">
      <stop offset="0" stop-color="#e3db78"/>
      <stop offset=".64" stop-color="#78c4c5"/>
      <stop offset="1" stop-color="#699ac0"/>
    </linearGradient>
    <linearGradient id="linear-gradient4" x1="124.87" y1="207.1" x2="124.09" y2="502.72" gradientUnits="userSpaceOnUse">
      <stop offset="0" stop-color="#ed5b6e"/>
      <stop offset="1" stop-color="#fbda5f"/>
    </linearGradient>
    <linearGradient id="linear-gradient5" x1="32.57" y1="141.73" x2="24.91" y2="500.68" gradientUnits="userSpaceOnUse">
      <stop offset="0" stop-color="#cc5779"/>
      <stop offset=".21" stop-color="#ec596f"/>
      <stop offset="1" stop-color="#fbd85d"/>
    </linearGradient>
    <linearGradient id="linear-gradient6" x1="28.2" y1="514.89" x2="34.1" y2="793.31" gradientUnits="userSpaceOnUse">
      <stop offset="0" stop-color="#e3db78"/>
      <stop offset=".63" stop-color="#79c4c4"/>
      <stop offset="1" stop-color="#6999bf"/>
    </linearGradient>
  </defs>
  <path class="st8" d="M391,425c-4.41-.11-4.94.09-7-2-2.33-5.2-.28-12.55,1-17,27.37-14.98,57.37-25.18,84-5l2,34c-3.74,14.4-10.77,24.63-7,40l8-3,2,17,44,14c5.4,3.83,43.15,80.3,44,89,1.35,13.8-25.95,48.46-33,58l5,15c-5.74,1.98-13.8,2.86-17-1-9.55,2.58-12.52,11.03-21,15,.48,12.1,3.78,25.09-1,35l-5,1-4,89h-105c-.33-34-.67-68-1-102l-9-9,10-81c-12.26.56-23.4-1.85-28-9-4.06-6.43-4.11-23.55-6-31l-2-1-6,1c-7.45,24.14-13.56,60.99-9,93,3.42,24.03,6.85,62.25-3,81-4.46,8.5-24.95,45.93-39,23-10.59-12.91,10.39-30.16,12-42,0,0-4.81-42.94-6-46-.67,18-1.33,36-2,54-16.33.67-32.67,1.33-49,2,.41,21.65,6.79,45.84,3,67H112c.17-58.88,7.8-117.23-3-175h-7c-3.67,27.66-7.33,55.34-11,83l4,14c4,20.29-4.87,34.39-12,44l-13-2-5-6c-4.65-17.64,2.83-33.55,5-47-.67-22-1.33-44-2-66l-4,1c-1,24-2,48-3,72l-6,44,11,38H0l1-28,1,2,8,11c.12-11.18-1.46-61.79-6-68l-3,26H0c-.09-188.45-.09-371.89,0-551,10.46-2.05,21.47-8.48,29-14l-1-10c-8.27-8.5-15.23-15.19-11-31,7.16-5.62,21.27-13.19,34-7,1.01,12.22,10.43,26.58,6,40-1.62,4.92-6.13,4.17-8,10,5.7,3.23,15.67,7.32,19,13,5.03,13.12.64,42.55,10,52,16.16,18.99,29.77,8.12,55,17l-4,5,5,1c-1.23,3.01-1.3,1.83-1,5l13,8c-4.24,4.63-5.18,3.11-4,9h-6l-10-3c1.22,21.25,5,37.76-6,52,.62,5.38,1.45,6.72,5,9l16,6,2-1,12-55c1.86-15.47,3.62-32.41,9-49-26.49,3.65-33.7-54.09-51-67h8l-3-4-4-3,10,5c-1.84-5.93-5.59-6.89-9-11l1-1,14,9-3-12,2,1,7,14c2.47-2.75.88-1.93,4-2l-2,22c8.22,2.76,9.21,15.51,15,21l2-1c3.98-14.05,10.58-28.46,30-28l-11-5c7.68-13.66,5.09-39.38,16-50,38.05-1.57,37.36,27.11,29,56l-8,1,1,2c15.02,3.98,18.3,9.55,23,24,16.07,49.4-43.75,92.9-14,122,.68-4.49,1.53-6.51,4-9h1c.52,22.51-3.97,49.2,8,62,1.64-27.84,13.03-32.45,25-48l-2-12c-5.72-1.93-10.39-2.74-13-8l-2-6,9-4-10-3c-4.75-5.51,1.13-6.94-7-10,3.05-16.38,14.28-25.62,16-42,22.77-3.12,41.45-2.67,57,8,7.97,27.72-25.39,53.66-19,66l38,18,47,82-41,7v5c8.52,30.39,11.11,64.36,10,100l3-1,17-16,3-19c7.64-20.33,22.03-30.26,46-35,.6-7.85,4.53-5.22,10-10l-1-1-11,3c-2.96-6.45-3.45-4.01-10-6,.08-19.12-6.77-25.93-8-42Z"/>
  <g id="Generative_Object">
    <g id="Background" class="st13">
      <polygon class="st2" points="-102.89 960.98 -102.89 -25.72 664.87 -25.72 664.87 961.41 -102.89 961.41 -102.89 960.98"/>
    </g>
    <g>
      <path class="st2" d="M340.12,562.96c.42,1.41-1.49,2.37-1.04,4.52-.3.47-.57.65-.8.02.21-1.49-.17-3.09.12-4.54h1.71Z"/>
      <g>
        <path class="st17" d="M486.71,770.32c-2.08-.11.23-2.69-1.66-4.21l-.81,30.09c-.04,1.33,1.46,4.98-.83,5l-26.18.29c-3.43.04-24.88-.11-24.96-.14-.55-.21-1.56-.78-1.55-2.21.33-72.03.02-143.48.28-214.71l.05-13.21.45-181.13c7.65-.47,14.76-2.07,22.45.1s14.14,7.65,15.11,16.27c.87,7.71,1.15,15.09-2.79,23.09,6.04,4.63,1.53,9.66.59,14.54-1.84,9.53-.52,19.68-5.28,28.76l9.15.39,2.44,9.76c.96,3.85,3.64,5.94,7.41,7.1,10.62,3.28,21.24,6.15,31.65,10.48,5.82,2.42,9.06,5.64,12.09,10.93,13.22,23.15,24.75,46.74,35.28,71.1,3.83,8.85,3.06,16.8-1.95,25.1-6.84,11.3-14.6,21.64-22.3,32.38-8.55,11.94-.05,19.97-11.18,22.92-3.98,1.06-7.61,1.54-11.66,3.02-6.03,2.21-14.41,6.25-15.88,13.55-1.36,6.75-.58,14.59-.27,21.12.35,7.17-4.22,11.1-5.63,16.7-3.25,12.93-2.95,26.68-3.49,40l-.52,12.92Z"/>
        <path class="st4" d="M431.49,390.1l-.45,181.13-.05,13.21c-.26,71.23.05,142.68-.28,214.71,0,1.43,1,1.99,1.55,2.21.08.03,21.52.18,24.96.14l26.18-.29c2.29-.03.8-3.68.83-5l.81-30.09c1.89,1.52-.41,4.1,1.66,4.21l-.83,33.39-104.11-.05-1.72-104.11c-5.19.46-7.87-2.71-8.04-7.25-.28-5.19.41-10.12,1.08-15.47l9.01-71.74c.09-1.34-1.1-1.13-.81.08-1.36,1.53-2.78,2.8-4.19,4.03.21-.16.06-.47-.5-.97-3.54,4.91-9.2,1.86-13.29-.83l-.27-64.81c-.69-1.12-2.47-1.16-3.17-1.75,2.17-9.09,6.56-38.86,13.14-43.54,13.95-9.91,29.53-16.92,44.84-23.51.88-.38,1.19-.27,1.57-.77.36-.47.53-.78-.09-.89s-1.09.01-1.44,0c-2.13-.1-3.72-1.18-5.95-1.69-8.5-1.95-13.82-9.61-15.47-17.79-2.2-10.85-1.81-20.35-8.22-27.58-4.77-5.38-5.57-12.24-3.25-18.76,1.86-5.21,5.29-8.82,10.83-10.36,11.97-3.32,23.85-5.13,35.65-5.85Z"/>
        <path class="st6" d="M377.1,609.2c-1.54,1.35-3.02,4.31-5.92,3.26-7.01-2.54-15-6.02-19.55-12.74-5.41-8.01-3.22-24.66-4.03-25.65-1.53-1.86-3.54.68-7.22-2.43-1.14-.96-1.52-2.53-1.3-4.17-.45-2.14,1.45-3.11,1.04-4.52.2.68.24-9.84,4.15-12.99,6.17-4.99,14.73-5.47,15.6-9.12.7.59,2.48.63,3.17,1.75l.27,64.81c4.09,2.69,9.75,5.74,13.29.83.56.51.71.82.5.97Z"/>
        <path class="st2" d="M128.48,179.01c-.09.45-.04.79-.47.93-1.22.42-.97-.56-1.26-.93.59.17,1.16-.35,1.73,0Z"/>
        <path class="st2" d="M231.29,404.43h.86c-.05,1.03-.86,1.02-.86,0Z"/>
        <path class="st2" d="M417.85,473.79c-.5-.45-.44-1.21.05-1.66.35.02.8-.1,1.44,0s.44.42.09.89c-.38.5-.69.39-1.57.77Z"/>
        <path class="st2" d="M382.1,605.09c-.25.29-.52.31-.81.08-.29-1.21.9-1.42.81-.08Z"/>
      </g>
      <g>
        <path class="st2" d="M244.11,733.74c-.27.5-.54.52-.81,0-.05-1.07-.46-2.02-.52-3.21l-.72-13.96c.08,1.46-1.98-24.33-.02-20.41l.63,10.52,1.09,18.33c.18,3.09.32,5.92.34,8.73Z"/>
        <g>
          <path class="st0" d="M231.29,404.43c0,1.02.81,1.03.86,0,2.56-37.42,16.81-37.57,26.12-55.92,1.63-3.21-1.26-9.01-3.3-11.63-9.28-1.41-16.01-8.28-15.02-18.24,1.22-12.2-4.84-4.78-2.57-10.3,1.21-2.93,5.34-4.95,5.82-8.31.44-3.14-8.49-1.09-6.15-3.52l1.44-1.49c2.33-2.42,6.49-32.2,26.27-33.28,5.65-.31,11.16.56,16.38,1.56.32,1.92,1.81,2.11,3.35,2.54,3.43.95,2.29,6.84,1.63,10.24-.66.15-1.71-.52-1.7.67-1.9,7.95-.42,16.51-.86,24.85-1.74-.71-.61,13.55-.54,15.17l1.03,23.44c1.63-12.38-1.08-27.4-.49-38.62.31.13.88-.09.88-.83l-.02-24.02c3.35-2.5,1.03,8,2.08,13.72,2.04,11.13-.2,25.9,1.75,35.12,1.12-2.29,2.68-4.39,4.79-4.26-5.06,7.77-3.44,1.95-3.53,18.6l15.93,5.18c5.96,1.94,12.34,4.66,16.35,9.93,7.26,9.52,12.8,19.45,19.22,29.74,11.14,17.86,22.04,35.15,31.56,53.74-13.21,5.2-23.29,4.9-37.2,9.53.27,8.59.78,16.44,2.21,25.04,5.01,30.1,6.7,60.54.83,89.86-.29,1.45.09,3.05-.12,4.54-1.86,13-4.32,25.82-7.22,39.18-.97,4.47-2.44,9.14-2.34,13.7.39,16.78.02,32.92,1.42,49.69,1.54,18.56,4.39,36.21,4.3,54.82-.02,5.06-.71,9.24-3.26,13.64-6.8,11.77-14.03,23.65-23.5,33.46-4.98,5.16-13.1,3.43-17.36-.26-5.48-4.74-6.83-11.6-3.71-17.91,6.75-13.61,12.67-16.36,12.13-31.54s-1.8-30.69-5.6-46.06c-.47,7.97-.22,15.18,0,23l1.01,35.55-48.27.2c-1.01,0-1.75-.54-1.77-1.22-.03-2.81-.16-5.64-.34-8.73l-1.09-18.33-.63-10.52c-1.97-3.92.09,21.87.02,20.41l.72,13.96c.06,1.19.47,2.14.52,3.21l3.4,69.96H112.15c-.07-5.8.05-11.15.3-16.46.29-.45,1.04,0,1.34.4l.11,13.76,13.08.07c2.99.02,6.04.93,9.17.03s15.4.88,22.53-.01c9.27-1.16,17.98.49,27.58-.17v-57.33c0-2.69-1.24-5.09.08-7.16,1.66,2.34-1.51,5.26,1.87,7.18,1.12-10.12.78-19.54.43-29.57-.03-.74-2.26-.53-2.23-2.29l.43-27.71,1.34,4.54c.81-2.12-.07-3.69,1.25-5.05-1.69-.86-2.01.25-2.21-.27-.4-1.04-.8-2.46-.39-2.82.56-.48,1.82-.21,2.64-1.03-2.17-1.07-2.78-1.53-2.85-2.65-.16-2.4.9-2.9,2.98-3.22-1.93-1.73-3.22-.73-3-1.83l.69-3.43c.11-.53-1.2-2.18-.32-2.12,1.32.1,2.21-.76-.26-.69l.65-138.05c0,.17,1.1-17.26-.54-15.38,1.17-12.35,0-24.63,0-37.85l-.1-145.32-.33-51c0-.87.13-1.2.33-1.57.21-.39,2.29.12,2.29-.38l.11-48.11c0-1.24-.99-1.58-1.27-1.93-3.97-4.88-.75,46.52-2.28,47.23-1.9-26.69.83-50.39-.35-75.72-3.49.34-6.62.55-9.57,1.11-.08-.33-.1-.68-.07-1.02,3.07-.73,6.13-2.33,10.12-2.9,1.06-3.59-10.46-.82-9.77-4.7l3.66-20.62c.58-3.25-.07-6.28,1.55-9.29,2.95-5.47,4.41-11.29,6.27-17.04,1.09-3.37,6.2-4.38,9.52-3.5,17.97,4.75,7.87-3.66,20.12,8.94,11.71,12.04,6.66,30.45,2.41,45.47-.57,2.02-3.43,4.49-2.63,7.06,1.63,5.28,14.5,6.85,18.29,22.55,5.81,24.07-3.59,50.78-13.55,73.38-3.02,6.86-6.05,12.97-8.37,19.81-3.85,11.41,1.5,23.47,12.82,27.23.18,13-1.1,25.34,1.18,37.88l4.05,22.29Z"/>
          <path class="st1" d="M293.04,321.33c-2.11-.13-3.68,1.97-4.79,4.26-1.95-9.21.29-23.99-1.75-35.12-1.05-5.73,1.27-16.23-2.08-13.72-.02-1.19,1.04-.52,1.7-.67.66-3.4,1.8-9.29-1.63-10.24-1.54-.43-3.03-.62-3.35-2.54,6,1.16,12.37,2.83,17.96,5.5,20.29,9.73,1.72,40.6-6.05,52.52Z"/>
          <path class="st1" d="M283.56,301.61c-.59,11.22,2.12,26.24.49,38.62l-1.03-23.44c-.07-1.62-1.2-15.89.54-15.17Z"/>
          <path class="st1" d="M283.56,301.61c.44-8.33-1.05-16.9.86-24.85l.02,24.02c0,.75-.57.96-.88.83Z"/>
        </g>
        <g>
          <g>
            <path class="st12" d="M186.83,512.45c-.65,6.86-1.83,8.38.54,15.38l-.65,138.05c2.47-.08,1.59.78.26.69-.88-.07.43,1.59.32,2.12l-.69,3.43c-.22,1.1,1.07.1,3,1.83-2.08.32-3.13.82-2.98,3.22.07,1.13.69,1.59,2.85,2.65-.82.82-2.08.55-2.64,1.03-.42.36-.02,1.78.39,2.82.2.52.52-.59,2.21.27-1.33,1.36-.44,2.93-1.25,5.05l-1.34-4.54-.43,27.71c-.03,1.76,2.21,1.54,2.23,2.29.35,10.03.7,19.45-.43,29.57-3.38-1.92-.21-4.84-1.87-7.18-1.32,2.07-.07,4.47-.07,7.16v57.33c-9.61.66-18.32-.99-27.59.17-7.13.89-19.27-.93-22.53.01s-6.19,0-9.17-.03l-13.08-.07-.11-13.76c-.31-.39-1.05-.85-1.34-.4,1.86-39.2,2.64-114.43-1.32-153.17-.35-3.46-5.56-6.86-7.52-5.39-.5.37-1.43,1.36-1.6,2.23-5,25.56-6.48,49.95-11.42,76.66-1.92,10.37,5.88,10.99,4.55,23.36l-2.26,20.87c-.53,4.94-1.9,10.36-6.01,13.12s-8.68,3.97-14.2,2.81c-18.96-3.97-3.51-46.73-3.28-52.21.41-9.72.14-19.08-.46-28.53-.8-12.71-.82-25.11-2.73-37.84-2.61,11.15-2.32,21.73-3.11,32.25-.56.42-1.02-.37-1.61-.16.35-7.04-.02-13.84-.06-21.55l-.5-112.18.52-36.08c1.32.13,2.1-1.3,3.39-1.35,7.88-.33,16.14-2.24,24.03-.51,4.31.95,7.7,1.46,12.36.6,11.38-2.09,8.49.06,17.3,1.22,4.36.57,9.44,1.18,14.21.44l11.05-1.69,8.35-1.46c3.63-.63,5.25,1.48,8.23,2.35,5.24,1.54,19.71-.28,25.35-.08.1.96.18,1.94,1.08,1.51Z"/>
            <path class="st5" d="M175.6,197.88c-.03.34-.01.68.07,1.02-.69.13-9.43,5.12-7.87,2.65,2.57-2.05,4.79-2.95,7.8-3.66Z"/>
            <path class="st2" d="M119.85,180.77c.36-.02.79.08,1.31.01.3-.04.6-.45.4-.9.52-.19,1.16.77.92,1.22-.2.36-.64,1.04-1.32,1.28s-.79-1.49-1.31-1.62Z"/>
            <path class="st2" d="M116.14,183.97c-.75-.17-.32-1.09-.58-1.49.9-.5,1.63.15,2.61,1.33-.4.72-1.34.49-2.03.17Z"/>
            <path class="st16" d="M187.37,527.82c-2.37-6.99-1.19-8.52-.54-15.38,1.63-1.89.54,15.54.54,15.38Z"/>
          </g>
          <g>
            <path class="st10" d="M167.8,201.54c-1.57,2.47,7.18-2.52,7.87-2.65,2.94-.55,6.08-.76,9.57-1.11,1.17,25.33-1.55,49.03.35,75.72,1.53-.72-1.69-52.12,2.28-47.23.28.34,1.27.69,1.27,1.93l-.11,48.11c0,.51-2.08,0-2.29.38-.2.37-.34.71-.33,1.57l.33,51,.1,145.32c0,13.22,1.17,25.5,0,37.85-.9.43-.99-.55-1.08-1.51-5.64-.2-20.11,1.61-25.35.08-2.98-.87-4.61-2.99-8.23-2.35l-8.35,1.46-11.05,1.69c-4.78.73-9.85.13-14.21-.44-8.81-1.16-5.92-3.3-17.3-1.22-4.66.85-8.05.35-12.36-.6-7.89-1.73-16.15.18-24.03.51-1.28.05-2.07,1.49-3.39,1.35l-.2-72.71.31-157.57.17-70c-2.29-1.99-.65.27-.67-3.75l-.06-13.61c0-2.07.77-3.57-.05-5.05,2.82.99,5.78,3.26,6.58,6.5,3.04,12.24,2.38,25.92,6.52,42.29,3.41,13.49,13.71,23.08,27.87,24.23l11.15.91c-.11.57.61,1.25.85,2.06l.17,22.13-.24,47.33c.83.65,1.67-.08,2.37.05.89,7.37-2.1,7.45,5.64,11.69,7.12,3.9,13.67,8.02,19.24,13.98,9.44-37.01,15.99-73.19,21.49-110.77-4.48,2.76-7.14,3.18-10.59.55-12.55-9.54-18.2-27.39-24.21-41.52-1.8-4.23-5.15-7.24-6.6-11.37-3.17-8.98-8.53-12.28-5.08-12.83.69.33,1.63.56,2.03-.17-.97-1.18-1.71-1.82-2.61-1.33-.57-.9-1.77-1.14-1.79-2.07-.02-.75.8-2.2,1.89-1.91,1.55.42,2.94,2,4.2,2.27.51.13.62,1.86,1.31,1.62s1.13-.92,1.32-1.28c.24-.45-.4-1.41-.92-1.22-.42-2.21-6.51-6.89-4.2-8.84,2.58-2.19,8.39,6.68,9.4,7.97.29.37.04,1.36,1.26.93.43-.15.38-.48.47-.93.71-3.62-.64-6.86-1.97-10.87,4.64-1.21,7.93,11.34,10.47,13,.66-2.19,1-5.75,3.04-5.72,2.71,9.19,2.37,15.04-1.6,23.53,3.11,10.66,9.59,20.41,14.9,31.02l7.21-19.01c1.55-4.09,4.13-6.94,7.25-9.43Z"/>
            <path class="st7" d="M116.25,334.24c-.7-.14-1.54.59-2.37-.05l.24-47.33-.17-22.13c-.25-.81-.96-1.49-.85-2.06,6.71.55,20.57-.54,27.01,4.68-4.09,3.28-12.26-.83-12.5,2.17s17.88,12.23,15.19,20.17c-.52,1.52-2.59,3.12-5,3.68-4.99,1.16-8.98-2.03-13.91-3.92,2.07,10.96,5.02,21.12,4.85,31.56-.13,8.31-12.95,9.47-12.5,13.22Z"/>
            <g>
              <path class="st11" d="M55.67,187.08c.56.98-.86,1.92-.87,3.06l-.23,39.6v138.64s.14,69.57.14,69.57l.21,72.77c-.16.7.18.97.7.78-.39,1.79-2.02.94-1.85-.7-.15-1.64.23-3.7-1.12-1.54-2.14,1.09-14.38,1.74-13.84,1.62-.93.21-1.98-1.45-2.91-2-3.22-1.91-7.35-.17-11.06.03-5.34.29-10.51-.66-15.2,1.49-4.34,1.99-1.12-3.35-9.19,1.82l-.07-312.55c3.93-7.89,18.47-11.85,26.18-13.84.19-3.04,2.92-7.65,1.33-10.95-7.54-15.64-19.27-25.53-6.4-36.76,5.45-4.75,12.41-5.43,19.57-5.36,3.53.03,7.22-.61,9.76,2.34,1.61,1.87-.41,5.09.54,7.31,5.46,12.79,8.74,19.35,2.26,32.76-1.45,3.01-.88,6.91-2.07,10.14,1.8,1.12,3.03,1.19,4.12,1.79Z"/>
              <path class="st15" d="M55.62,511.49c1.93.36,3.93-.26,5.84-.07l-.52,36.08c-1.14.26-5.4.63-6.1,2.72l.35,105.9.04,70.48c0,5.53-.74,10.53.97,15.49,1.72-8.51,2.55-25.63,4.29-30.78.36-1.06-2.14-3.01-1.36-4.51,2.4-4.64,1.11-9.3,1.1-14.25l-.02-10.2c0-.46,1.25-.45,1.29-1.12.59-.21,1.04.58,1.61.16l-2.88,38.58c-.18,2.42-.03,4.97-.67,7.35-3.08,11.51-1.6,23.39-2.7,35.23-2.24,24,8.82,21.55,11.46,41.06l-68.01.07-.16-24.81c-.05-7.42,6.68,4.19,8.51,5.42,1.94-2.23-.21-4.78.19-7.03.14-.77-.76-48.33-1.92-53.72-3.67,6.88-3.85,13.52-6.46,20.52l-.02-231.85c8.07-5.17,4.85.18,9.19-1.82,4.69-2.15,9.86-1.2,15.2-1.49,3.71-.2,7.84-1.94,11.06-.03.92.55,1.97,2.21,2.91,2-.54.12,11.69-.53,13.84-1.62,1.34-2.16.97-.1,1.12,1.54-.17,1.64,1.46,2.49,1.85.7Z"/>
              <path class="st14" d="M60.98,188.73c.82,1.49.04,2.98.05,5.05l.06,13.61c.02,4.02-1.62,1.76.67,3.75l-.17,70-.31,157.57c-2.24.27-4.38-.32-6.55-.76l-.13-69.57v-138.64s.22-39.6.22-39.6c0-1.14,1.42-2.09.87-3.06,1.7.92,3.55,1.03,5.31,1.65Z"/>
              <path class="st9" d="M61.27,438.7l.2,72.71c-1.91-.19-3.91.44-5.84.07-.51.2-.85-.07-.7-.78l-.21-72.77c2.18.44,4.31,1.02,6.55.76Z"/>
              <path class="st3" d="M60.94,547.5l.5,112.18c.03,7.71.4,14.51.06,21.55-.03.67-1.29.66-1.29,1.12l.02,10.2c0,4.94,1.3,9.6-1.1,14.25-.78,1.51,1.72,3.46,1.36,4.51-1.74,5.15-2.57,22.26-4.29,30.78-1.72-4.96-.97-9.95-.97-15.49l-.04-70.48-.35-105.9c.7-2.09,4.96-2.46,6.1-2.72Z"/>
            </g>
          </g>
        </g>
      </g>
    </g>
  </g>
  <path class="st8" d="M50,169l-4,1v1h2l5,1,2-3h-5Z"/>
  <path class="st8" d="M188,183l-1,1,2,2c3.63-.64,3.03-.4,5-2l-6-1Z"/>
  <path class="st8" d="M69,267l1,11,2-1,3-6-6-4Z"/>
  <path class="st8" d="M68,317l5,37h1c7.26-2.62,12.91-5.21,16-12l1-4-23-21Z"/>
  <path class="st8" d="M110,326l-3,1,1,2c6.79,1.11,10.29,1.3,14-3h-12Z"/>
  <path class="st8" d="M36,353l-9,28,8,16h1c.89-9.68,6.45-36.94,0-44Z"/>
  <path class="st8" d="M202,361c-5.74,17.77,11.77,63.55,5,81-1.3,3.36-7.26,4.04-8,9l3,22-10,8c-2.49,6.17,4.96,14.23,8,16l19,5c15.24,8.62,18.92,26.48,31,38l-6-82h-15l-19-53c-3.12-11.18,4.36-33.98-8-44Z"/>
  <path class="st8" d="M324,408l2,15,7-1-9-14Z"/>
  <path class="st8" d="M189,461l-11,4h11l5-4h-5Z"/>
  <path class="st8" d="M34,465c-3.42,1.86-5.98,1.37-8,5l8,1,3-1v-5h-3Z"/>
  <path class="st8" d="M383,532h6c3.19-13.62,8.51-13.86,16-22l-13,1-9,7v14Z"/>
  <path class="st8" d="M234,576c-2.79,6.76-4.78,12.95-6,22h1c9.01-3.91,14.76-3.23,25-1v-4c-4.3-6.56-12.37-13.88-20-17Z"/>
  <path class="st8" d="M508,581l-6,51c8.22-7.05,12.08-19.75,17-30-.79-8.06-5.2-17.74-11-21Z"/>
  <path class="st8" d="M247,603l7,5h1l-1-5h-7Z"/>
  <path class="st8" d="M229,622c-.33,34.29,10.77,60.58,12,96l20-6c-2-26.33-4-52.67-6-79l-26-11Z"/>
</svg>