<?xml version="1.0" encoding="UTF-8"?>
<svg id="Layer_2" data-name="Layer 2" xmlns="http://www.w3.org/2000/svg" viewBox="0 0 650.43 568">
  <defs>
    <style>
      .cls-1 {
        fill-rule: evenodd;
      }
    </style>
  </defs>
  <g id="Layer_1-2" data-name="Layer 1">
    <path class="cls-1" d="M620,157c-.33-7.67-.67-15.33-1-23,3.64-12.18,7.83-20.81-1-33-4.57-6.31-12.18-5.72-19-10-10.63.38-24.5,2.34-28-5,1.67-1,3.33-2,5-3-.15-3.69.71-11.62,0-14-.13-.43-3-2-3-2-1.17-3.06,2.63-6.05,3-8-.33-2.33-.67-4.67-1-7-1.1-.97-1.82-3.27-3-4h-4c-1.91-1.72.3-5.45-1-8-1.67-1-3.33-2-5-3v-6c-.46-1.22-2.29-2.69-3-4-6.74-2.69-8.98-.96-15-2-1.21-.21-4.79-2.75-6-3-2.33.33-4.67.67-7,1-.64-.36-1.06-3.58-2-4-7.03-3.14-10.72,4.03-14,0-21.11-.45-20.98,12.18-34,20-.3,7.02.52,9.62,7,10-.51,1.41-1.19,4.81-2,6-.07,12.66,10.96,9.9,18,15,9.53-.19,19.66-.67,25,3v2c-7.93,0-16.49-.26-23-1-.4,2.05-.25,1.93-1,3-.92,2.7-1.72,2.93-3,5-5.3-.22-7.49-1.38-11-3-.68-3.3-1.07-7.42-1-12-1.67-.33-3.33-.67-5-1-2.79,4.83-6.13,10.2-12,12,.48,5.67,3.12,6.17,8,7-.09,3.7.26,20.59,0,21,.36,3.75.78,3.72,2,6,2.23.41,7.24.85,9,2,10.02-.19,11.78,1.44,17,5v2c-1.73-.65-.98-.2-2-1-6.55,1.48-3.36,4.38-7,8-2.5,2.48-15.4,9.66-19,12-3.37,15.02-6.64,31.52-11,46-1.73,5.75-1.07,12.43-4,17v1c-4.94-2.55-4.37-8.03-7-13-4.51-8.54-14.62-19.08-16-30-.76-6.01-.14-21.5-3-31-7.94-26.42-31.51-65.5-57-73V17c.64-1.19,25.77-10.6,29-11v-3c-37-1-74-2-111-3-35.23,10.85-70.46,25.1-108,33v4c21,2,42,4,63,6,.75,3.64,1.25,7.02-1,10-.18,12.66-6.51,12.24-13,18-2.5,2.23-10.2,8.81-12,11-2.73,3.32-3.77,8.26-7,11-5.25,4.45-12.39,6.98-16,13-5.93,9.88-4.04,26.97-11,36-1.63,3.32-27.49,18.67-32,20-1.03.81-.25.37-2,1-5.03-12.73-8.56-32.45-19-40-3.94-2.85-8.53-3.68-13-6-4.62-2.4-8.97-5.97-15-7v-2c3.67.41,7.68,1.16,10,3,2.53-.11,3.71-.12,5-1,2.82-4.21,3.14-16.66,5-22,4.7-13.49,22.93-48.07,14-62C137.86-3.06,56.34,3.77,64,46c1.67,9.19-7.88,18.02,1,25-.51,11.68,5.09,16.21,16,16-.6,7.61-3.37,12.6-6,18-14.65,3.34-38.39,15.36-47,25-3.72,4.16-4.86,15.93-5,23-10,1.91-15.35,10.44-23,15v11h1c4.56-8.87,14.2-10.75,20-18h2c-.07,5.02-.09,10.93,2,14-2.72,6.68-12.25,8.74-16,15-7.21,12.04-1.29,31.25,8,36,4.99,2.55,13.27,1.33,18,1,.83,9.37,6.83,16.75,8,25-1.67,8.67-3.33,17.33-5,26h-1c-9.97-24.13-19.8-49.34-36-67v-1H0c.26,21.59,6.2,20.61,14,33,6.41,10.17,12.1,23.08,16,35,3.03,9.26,3.88,19.57,6,29,1.23,5.45-1.38,13.01,1,17-.82,4-4.11,7.11-7,9v10c12.87,11.4,10.47,16.6,10,40-10.22-.06-27.17-.11-33,5-1,.33-2,.67-3,1-.33,7.67-.67,15.33-1,23H0v93c6-.07,18.66-.78,23,2,4.25-1.41,2.15-.08,2-4,4.99,1.78,6.92,6.26,11,9-.62,3.71-1.6,5.22-4,7-3.09.43-.38-.89-3-2-9.67-.33-19.33-.67-29-1v20h134c.34-5.4.71-29.33,3-33v-2h5c-1.83,23.1,36.37,55.25,61,52v-1c8.74-11.08-12.62-40.95-20-46v-3c13.91.38,46.05,6.11,56-1,3.71-1.87,3.5-6.08,6-9-.31-3.13-.18-4.61-2-6-3.11-2.37-36.46-9.48-42-10,7.08-12.21,7.72-27.86,12-43,5.68-20.11,10.33-42.94,16-64,2.82-10.47,2.04-29.7,7-38,.27-11.54-4.31-15.85-11-20v-2c2.86.29,8.86.6,11,2h11c3.3,1.67,3.58,9.2,5,13,4.3,11.46,7,22.96,11,36,14.75,48.06-.99,100.62-16,137-5.59,13.55-8.73,30.87-18,41,1.53,3.78,4.34,3.59,7,6,8.61-1.98,17.09-31.77,21-41,5.69-13.45,11.84-27.6,16-43,7.63-28.25,3.53-80.78-3-106-3.39-13.1-3.54-29.64-11-39v-2c17,.33,34,.67,51,1-1.67,22.33-3.33,44.67-5,67v81c0,37.55-4.25,71.24-8,104,6,.33,12,.67,18,1-2.35-20.77-4.51-57.99,0-79v-30c0-18.38,2.53-41.5-1-58-1.37-6.4-.04-17.16,1-22v-26c1-12.67,2-25.33,3-38,10.92.17,48.68,3.62,56-1h14c-11.25,54.12-34.2,116.13-14,180,3.77,11.93,7.72,25.89,14,36,4.05,6.51,10.78,11.67,15,18,5.27-.17,8.32-1.35,11-4,2.1-1.26-12.05-15.22-14-18-12.81-18.32-17.01-40.11-23-66v-31c0-24.46,3.59-46.38,9-66,.67-5,1.33-10,2-15,2.97-10.13,7.31-22.29,8-34,1.73-.65.98-.2,2-1,6.1,1.77,10.29,28.68,13,36,9.39,25.39,19.78,50.63,28,76,1.33,8.33,2.67,16.67,4,25,1.29,5.74-1.45,13.74,1,18-2.16,5.94-9.74,7.1-15,10-9.83,5.42-19.48,14.38-33,16,1.65,4.88,5.4,6.17,8,10,15.06.04,31.72.62,44-2,7.27-1.55,13.49,2.98,16,2h10v1c-14.58,7.2-29.25,16.25-51,16,3.19,4.66,11.16,11.24,17,13,2.86,1.85,10.44,1.1,15,1,11.34-.24,34.52.88,40-6h1v4c7.71.06,19.8.37,25-3h2c-2-10-4-20-6-30-.17-2.65,2.28-2.18,2-4-4.12-26.54-2.34-57.46-8-83-2.15-9.69.91-34.49-3-41v-7c4.66-1.25,12.75-6.55,18-3h2c1.67,17.66,3.33,35.34,5,53,4.58,21.2-3.6,50.59-2,68,2,.33,4,.67,6,1,4.44-39.03.57-84.51-2-122,7-.67,14-1.33,21-2,.23,26.91-1.07,54.36,4,77,.67,9,1.33,18,2,27,2.33,9.83,2.25,20.91,5,32,2.27,9.16,5.67,19.39,6,30,3.75-.36,3.72-.78,6-2-5.33-53.33-10.67-106.67-16-160,.4-11.6,28.21-12.21,36-19h2c.27,27.52-1.25,54.99,4,79,.67,12,1.33,24,2,36,2.67,16.66,5.33,33.34,8,50h1v1c2-.33,4-.67,6-1-.28-14.38-2.98-29.81-6-43-1-14-2-28-3-42-5.14-22.63-5-48.87-5-75,0-18.93-3.13-36.61,1-53,4.86-19.28,9.6-38.88,19-54,7.23-11.64,16.71-20.96,21-36,7.26-25.45-14.84-42-29-50ZM490,98c-2.67-.33-5.33-.67-8-1v-2c3.56.71,5.44.71,9,0-.33,1-.67,2-1,3ZM23,220c-3.47-3.37-6.63-6.53-10-10-.05-14.93,5.84-17.15,12-25,3.25,4.08,6.4,27.39,7,34-2.73.57-5.18,1.02-9,1ZM48,352c11.6,1.63,22.39,5.16,36,5-.67,11.33-1.33,22.67-2,34-.19,5.62,1.37,15.19-1,19v2c-5.67-.33-11.33-.67-17-1-.02-4.93-.25-14.52,2-18-1.64-8.36-9.95-5.33-16-9h-2v-32ZM48,405v-6h1v1c1,.33,2,.67,3,1,.34,3.64,1.05,5.09-1,8v2h-4c.02-2.73.04-4.58,1-6ZM19,398c2.73-.02,4.58-.04,6-1,4.85-.07,10.63-.16,14,1v13c-7.58.08-18.1,1-24-1,.02-7.07,1.48-8.12,4-12ZM27,481c-4.67-5.77-5.38-18.79-8-26,16.33-4.67,32.67-9.33,49-14,1.73.65.98.2,2,1,4.35,5.52,3.05,16.09,7,22v3c-10.1,2.44-21.38,6.07-31,9-6.56,2-13.89,1.55-19,5ZM106,503c-.78,9.39-13,16.7-24,12-3.51-1.5-6-5.75-9-8-.33-3.67-.67-7.33-1-11,3.45-3.56,6.59-7.46,10-11,2.05-.4,1.93-.25,3-1,14.62-.2,15.41,4.86,22,12,.03,2.91.05,5.45-1,7ZM108,413c-2.14,1-12.63.1-18,0,.01-5.65,1.33-39.33,3-42-.07-4.85-.16-10.63,1-14,4.67-.33,9.33-.67,14-1,.99,12.16,1,27.31,1,41,0,4.84.98,12.88-1,16ZM113,82c5.09,2.17,10.52,4.67,17,5-.92,2.16-.87,1.45-2,3-3.1.07-6.31.14-8-1-3.46-1.22-4.28-3.19-7-5v-2ZM135,416c-6.67-.67-13.33-1.33-20-2,3.36-10.67,2.16-43.66,2-59,8.03.76,14.1,4.78,20,8-.67,17.66-1.33,35.34-2,53ZM449,235c-9-1.33-18-2.67-27-4,.59-3.05,11.97-24.73,14-27,.65-1.73.2-.98,1-2,4.2,9.72,10.63,22.06,12,33ZM414,185c-1.03.81-.25.37-2,1-.92-1.08.08-.09-1-1-.03-5.4.21-10.98,1-15,2.99,1.42,9.71,3.13,11,4h2c-.92,1.08.08.09-1,1-1.28,4.82-5.47,8.59-10,10ZM392,91c3.99.79,3.62,1.89,7,3,.33,3.67.67,7.33,1,11,1.79.54,4.62-.62,6,0v1c3.37,2.52,12.83,10.71,14,15,4.95.42,8.41-.13,12-1,2.1,5.49,2.65,15.08,6,20v5c-8.14-2.82-10.2-11.73-15-18v-1c-3.03,1.08-2.96.92-4,4-.91,1.66-.2,2.58,0,6-5.27-.86-8.49-3.17-13-5-2.63-11.38-6.98-29.54-15-36,.33-2.31.46-2.48,1-4ZM233,204c.92-1.72-1.93-6.14-4-8v-2c4.12.53,9.43,1.42,12,1,7.09,16.9,12.86,36.07,25,48v2c-2.33-.33-4.67-.67-7-1-.21-3.41-.48-5.11-2-7-1.83-2.73-12.95-8.92-16-10-3.81-1.35-10.81.5-12,0-10.8-7.59-10.14-25.29-18-36v-3c3.33,1.57,8.84,2.79,12,5,4.27,1.03,4.38,7.83,8,12v1c.69.89,1.91-1.9,2-2ZM316,107v2c-8.38.46-15.24,1.36-20-3h-1c1.5-2.42,4.16-2.03,6-4,6.89.46,8.02,3.11,14,4v1h1ZM309,221c5.67.33,11.33.67,17,1,1.48-.49,16.88-3.42,21-2,2.1.72,4.34,2.53,8,3,.12,4.1.64,10.52-1,13v10c-9.33,1.67-18.67,3.33-28,5-13.35-.24-11.58-19.61-17-28v-2ZM305,141c-4.87-.15-5.7-1.03-9-2,.29-4.12.91-5.87,3-8,1.03-.44,5.69.04,10,0,.64,4.11,2.72,4.92,1,8v2c-2.77.48-2.89,1.21-5,0ZM315,200c1.35-1,1.81-1.93,3-3,1.83-1.29,6.32-1.79,9-2,.33-1.33.67-2.67,1-4,7.4,0,9.65,1.51,14,4-2.98,8.56-9.11,6.91-12,11v6c-.42.65-2.31.98-3,2-5.33-.59-5.23-2.4-9-4-.74-3.58-1.78-7.2-3-10ZM355,217c-4.07-1-4.3-3.01-5-7-5.03.15-6.39,1.1-10,2-.92-1.08.08-.09-1-1,.17-11.48,3.91-5.19,7-12,6.56.26,5.06,2,9,4v14ZM348,193c-1.47,2.49.25,1.17-3,2v-3h1v1h2ZM351,194c-.4-2.05-.25-1.93-1-3v-1c3.13.72,2.1.66,4,2-1.47,2.49.25,1.17-3,2ZM353,183c-3.81.08-7.68.37-10,2-3.56-.33-3.33-.06-5-2-2.28-2.44,2.35-7.03,3-9,2.12-6.42-6.97-9.75,0-17-1.86-4.31-2-1.63-2-7h5c.25-3.49.35-4.21,2-6v-2c3.96,2.4,7.27,32.66,7,41ZM344,128c-2.23-.97-3.29-3.28-5-4-3.33.33-6.67.67-10,1-3.31-1.26-5.2-3.69-11-4-.47-4.36-1.36-4.09-2-8,9.36-.77,16.31-3.71,25-4,.15,4.8.82,10.85,3,14v5ZM298,213c2.32.74,2.23,1.04,4,2,3.45,8.55,6.9,28.89,13,34-.65,1.73-.2.98-1,2-5.86,3.87-21.71.71-26,3-10.32,0-10.38-4.74-15-10-10.24-11.65-23.97-29.17-26-48,2.59.47,4.05.59,5,1h25c3.46,1.7,2.56,8.4,3,9,.18.24,14.21,8.73,15,9,1.36.1,1.41.25,3-2ZM265,259c1.73.65.98.2,2,1,3.56-.33,3.33-.06,5-2,9.79.1,21.22,9.07,27,14h1v2c-11.09-1.7-26.94-6.45-34-13h-1v-2ZM288,260v-2c6.99.1,22.84.66,27-2h3c1.47,5.67,4.87,11.86,9,15-1.27,1.68-2.73,2.32-4,4-15.23-2.13-23.31-11.13-35-15ZM323,255c7.75-.07,20.61-.47,26-4h4c-1.42,6.53-3.3,12.95-6,18-5.23-.2-11.85-2.01-15,0-4.39-1.96-8.35-8.33-9-14ZM359,249c7.26-.31,19.19-2.31,24-6h4v1h-1c-5.18,14.93-21.78,18.1-32,28h-2c1.1-6.95,3.95-16.97,7-23ZM368,236c2.26,3.35,5.43.77,9,3h1v1h-1c-3.67,2.9-11.16,2.22-15,5-2.31-.33-2.48-.46-4-1,.67-5.67,1.33-11.33,2-17,.26-5.1,1.16-5.08,3-8h3c1.98,6.65-2.4,12,2,17ZM394,240h2c.55,1.52.71,1.67,1,4h5c-3.19,8.85-15.5,11.2-21,18h-2c1.97-9.09,12.07-12.85,15-22ZM398,191c-4.54.41-6.19,1.8-8-1-5.53,1.25-4.57,4.34-8,7-2.62,2.03-7.05,1.1-10,3-2.83,1.82-4.01,5.95-7,8v5c-2.05.4-1.93.25-3,1-2.52-1.38-4.66-9.38-2-13,1.26-2.87,11.16-9.91,15-12v-3c-4.94.55-9.51,1.97-12,5-2.56-1.39-2.66-2.46-3-6,10.83-1.43,37.49-8.08,45-13h2c.11,3.69.44,8.85-1,11-1.8,3.69-5.7,4.69-8,8ZM401,126v3c-3.23-1.35-5.93-2.08-11-2,.61,6.31,7.64,8.89,13,10,1.5,7.85-.52,19.99,4,27-2.28,6.16-39.1,16.17-49,17-1.35-25-6.08-54.31-14-73,12.21-4.61,29.88-5.03,39-13,11.91,1.42,11.62,23.35,18,31ZM386,63v1c-4.1-.49-3.41-.27-5-3,3.17.57,2.91.88,5,2ZM379,68v3h-1v-1h-2c1.47-2.49-.25-1.17,3-2ZM374,85c3.7,1.34,7.12,2.4,10,4-7.54,9.54-26.6,7.14-37,14-8.32-1.73-7.23-16.49-12-22v-3c1.67.33,3.33.67,5,1v-3c-3.35-.51-2.65-.47-6,0-.63-2.23-.74-2.64-2-4v-2c5.32.09,5.03,0,5,3,2.34.62,3.13,1.16,5,2v-1h1c-1.32-2.43.47-.71-2-2,1.35-2.72,3.25-2.82,5-5,4.87.15,5.7,1.03,9,2-.65,1.73-.2.98-1,2-3.01,2.17-4.91.18-8,2-2.43,1.32-.71-.47-2,2h-1c2.27,4.88,10.85,7.12,16,9,.74-.87,1.26-1.13,2-2,.78-.62.25-.03,0-1,1.75-3.39,5.75-.65,9-5,1,.33,2,.67,3,1,.72,2.04,1.04,4.68,1,8ZM368,22h2v27c-4-1.33-8-2.67-12-4-.77-4.94-3.32-11.32-6-15,3.04-5.6,10.63-4.66,16-8ZM352,50c8.46.46,8.14,1.37,16,0v4h-16v-4ZM342,52h3v1h1c-1.81,3.2-6.37,3.65-9,6h-2c1.55-4.16,4.53-4.01,7-7ZM331,59h3v2h-3v-2ZM293,68c6.53.94,12.06,5.41,15,10,5.98-.58,9.54-5,12-9,3.01-.14,2.78-.74,4,0,4.63,1.88,4.11,6.59,7,10-.88,2.04-2.55,5.13-4,7,1,5.53,4.03,5.24,8,5,.83,4.01,1.8,9.19,4,12v2c-11.66-.51-12.43-13.04-17-21-7.24-.37-22.44-4.13-28,2h-2c.33-6,.67-12,1-18ZM277,63c-1.85,3.02-3.84,2.06-6,0h6ZM259,64h3c-2.02,5.69-8.01,7.29-12,11h-2c1.96-5.61,7.16-7.32,11-11ZM250,106c2.26.47,1.12.86,3,0,.96-2.17-.97-4.96-3-7,2.11-9.15,9.61-8.7,14-15,.78-.62.25-.03,0-1-1.47-2.49.25-1.17-3-2v-1c2.42-1.25,3.85-2.66,6-4,1.09-.72,7.2-1.98,10,0,2.31-.33,2.48-.46,4-1-.6-3.12-.17-2.43-2-4,1.08-3.08,2.44-3.61,4-6h5c.75,4.92-.09,31.15-4,37-3.71,5.55-10.11,1.98-10,11-6.55.01-21.55-1.47-24,0h-2c.96-2.31,1.66-3.87,2-7ZM239,140c3.16.18,1.4-1.73,3,1,4.12-.37,3.73.24,5-3,4.04.42,3.92,1.11,7,2,.63,2.23.74,2.64,2,4v8c-4.32-3.06-12.07-4.85-17-7v-5ZM255,153c3.01,3.67,8.46,10.84,10,15,3.67,9.89-2.03,15.28,5,23v1c-7.93.11-17.35-.04-26-1-.44-11.53-2.85-24.14-5-36,3.78-1.05,12.6,1.7,16-2ZM234,93h3c-.55,1.26-1.2,3.02-2,4-1.1,4.09-2.83,3.34-5,6h-3c2.06-4.2,4.88-6.24,7-10ZM217,116v-2c2.16.92,1.45.87,3,2,.67-1,1.33-2,2-3,5.76.83,8.67,2.81,15,3,.92,1.08-.08.09,1,1-1.05,9.57-1.38,13.51-7,19-2.51-3.9-.91-13.85-2-16v-2h-2c.12,3.89,2.09,7.09,2,9-.07,1.38-3.85,3.51-3,6,.2.59,2.37,1.15,3,5,2.53.11,3.71.12,5,1,.76,1.08.63.92,1,3-8.43-1.21-15.8-4.5-25-5,1.43-6.6,3.25-16.22,7-21ZM209,172c7.12,2.67,10.42.11,17-2,.51-2.47.92-3.67,1-7,2.73-.02,4.58-.04,6-1,3.02,1.73,6.6,23.82,7,29-12.84-.24-21.79-4.29-30-9-.65-1.73-.2-.98-1-2v-8ZM184,176h2c-1.58,3.91-2.53,9.77-5,13v1c-2.74-.85-5.18-2.2-7-4-1.08-.92-.09.08-1-1,3.67-3,7.33-6,11-9ZM154,247c-.82-7.34-.34-22.23-4-28v-1c8.55,2.19,40.56,13.68,51,6,5.12-2.3,8.32-11.58,9-18h2c1.99,7.78,7.16,18.81,13,23-.65,1.73-.2.98-1,2-5.55,3.78-14.66.76-22,3-9.6,2.93-21.72,4.63-32,8-5.1,1.67-9.5,4.63-16,5ZM470,259h-1c-.86,3.18-1.98,5.08-4,7-2.35,1.55-23.56-9.29-28-11-4.96-1.91-33.78,5.03-38,8h-2c2.42,2.33,37.16,17.45,41,18,2.4.34,23.08-6.58,25-8,3.09.05,5.13.35,7,1v1c-38.51,18.75-92.89,23.01-150,23-29.95,0-60.02.57-85-5-5-.33-10-.67-15-1-25.23-5.98-43.81-7.91-60-23,.02-2.73.04-4.58,1-6,4.64-13.4,40.4-17.81,56-22,4.3-1.15,9.65-.04,13-2,2.93.93,3.8,1.31,5,4h1c-2.16,3.36-10.14,2.41-14,4-11.01,4.52-23.96,12.67-37,14v2c12,3.67,24,7.33,36,11,8.35-1.12,29.2-14.49,38-12,3.04.86,6.26,4.75,9,6,8.85,4.06,18.43,7.17,28,10,41.01,12.12,98.48-10.5,116-37,17.12.89,47.93,7.99,57,17h1v1ZM499,240c-4.31-.01-11.11-.1-14-2h-7c2.33-6.9,7.87-12.29,11-19,5.75,2.96,6.26,13.86,10,19v2ZM617,191h2c3.58,6.86,6.31,11.4,6,23-1.53,1.54-2.94,4.09-4,6-3.09.74-4.5,1.6-8,2,1.33-10.33,2.67-20.67,4-31ZM601,305v11h-2v-1h-1c.67-5.73,1.33-13.17,3-18h2c-.41,2.14-.91,6.37-2,8ZM643,205c-2.08,7.23-8.31,13.92-12,20-10.7,17.61-24.39,44.87-27,69-.72-1.1-5.58-24.92-5-26,1-.33,2-.67,3-1,5.01-7.64,8.13-21.31,9-32,2.67-1.16,8.47-2.03,11-4,14.62-11.4,13.41-41.94-3-50-.07-5.39-.32-12.14,1-16,10.45,5.3,28.91,19.49,23,40Z"/>
  </g>
</svg>