<?xml version="1.0" encoding="UTF-8" standalone="no"?>
<svg
   id="Layer_1"
   data-name="Layer 1"
   viewBox="0 0 650.43 568"
   version="1.1"
   sodipodi:docname="globe2.svg"
   inkscape:version="1.4 (86a8ad7, 2024-10-11)"
   xmlns:inkscape="http://www.inkscape.org/namespaces/inkscape"
   xmlns:sodipodi="http://sodipodi.sourceforge.net/DTD/sodipodi-0.dtd"
   xmlns="http://www.w3.org/2000/svg"
   xmlns:svg="http://www.w3.org/2000/svg">
  <sodipodi:namedview
     id="namedview59"
     pagecolor="#ffffff"
     bordercolor="#000000"
     borderopacity="0.25"
     inkscape:showpageshadow="2"
     inkscape:pageopacity="0.0"
     inkscape:pagecheckerboard="0"
     inkscape:deskcolor="#d1d1d1"
     inkscape:zoom="1.4330986"
     inkscape:cx="325.16953"
     inkscape:cy="284"
     inkscape:window-width="1920"
     inkscape:window-height="1009"
     inkscape:window-x="-8"
     inkscape:window-y="-8"
     inkscape:window-maximized="1"
     inkscape:current-layer="Layer_1" />
  <defs
     id="defs1">
    <style
       id="style1">
      .cls-1 {
        fill-rule: evenodd;
      }
    </style>
  </defs>
  <path
     id="path1"
     style="display:inline;fill:#000000"
     class="cls-1"
     d="M 301 0 C 265.77 10.85 230.54 25.1 193 33 L 193 37 L 256 43 C 256.75 46.64 257.25 50.02 255 53 C 254.82 65.66 248.49 65.24 242 71 C 239.5 73.23 231.8 79.81 230 82 C 227.27 85.32 226.23 90.26 223 93 C 217.75 97.45 210.61 99.98 207 106 C 201.07 115.88 202.96 132.97 196 142 C 194.37 145.32 168.51 160.67 164 162 C 162.97 162.81 163.75 162.37 162 163 C 156.97 150.27 153.44 130.55 143 123 C 139.06 120.15 134.47 119.32 130 117 C 125.38 114.6 121.03 111.03 115 110 L 115 108 C 118.67 108.41 122.68 109.16 125 111 C 127.53 110.89 128.71 110.88 130 110 C 132.82 105.79 133.14 93.34 135 88 C 139.7 74.51 157.93 39.93 149 26 C 137.86 -3.06 56.34 3.77 64 46 C 65.67 55.19 56.12 64.02 65 71 C 64.49 82.68 70.09 87.21 81 87 C 80.4 94.61 77.63 99.6 75 105 C 60.35 108.34 36.61 120.36 28 130 C 24.28 134.16 23.14 145.93 23 153 C 13 154.91 7.65 163.44 0 168 L 0 179 L 1 179 C 5.56 170.13 15.2 168.25 21 161 L 23 161 C 22.93 166.02 22.91 171.93 25 175 C 22.28 181.68 12.75 183.74 9 190 C 1.79 202.04 7.71 221.25 17 226 C 21.99 228.55 30.27 227.33 35 227 C 35.83 236.37 41.83 243.75 43 252 L 38 278 L 37 278 C 27.03 253.87 17.2 228.66 1 211 L 1 210 L 0 210 C 0.26 231.59 6.2 230.61 14 243 C 20.41 253.17 26.1 266.08 30 278 C 33.03 287.26 33.88 297.57 36 307 C 37.23 312.45 34.62 320.01 37 324 C 36.18 328 32.89 331.11 30 333 L 30 343 C 42.87 354.4 40.47 359.6 40 383 C 29.78 382.94 12.83 382.89 7 388 L 4 389 L 3 412 L 0 412 L 0 505 C 6 504.93 18.66 504.22 23 507 C 27.25 505.59 25.15 506.92 25 503 C 29.99 504.78 31.92 509.26 36 512 C 35.38 515.71 34.4 517.22 32 519 C 28.91 519.43 31.62 518.11 29 517 L 0 516 L 0 536 L 134 536 C 134.34 530.6 134.71 506.67 137 503 L 137 501 L 142 501 C 140.17 524.1 178.37 556.25 203 553 L 203 552 C 211.74 540.92 190.38 511.05 183 506 L 183 503 C 196.91 503.38 229.05 509.11 239 502 C 242.71 500.13 242.5 495.93 245 493 C 244.69 489.87 244.82 488.39 243 487 C 239.89 484.63 206.54 477.52 201 477 C 208.08 464.79 208.72 449.14 213 434 C 218.68 413.89 223.33 391.06 229 370 C 231.82 359.53 231.04 340.3 236 332 C 236.27 320.46 231.69 316.15 225 312 L 225 310 C 227.86 310.29 233.86 310.6 236 312 L 247 312 C 250.3 313.67 250.58 321.2 252 325 C 256.3 336.46 259 347.96 263 361 C 277.75 409.06 262.01 461.62 247 498 C 241.41 511.55 238.27 528.87 229 539 C 230.53 542.78 233.34 542.59 236 545 C 244.61 543.02 253.09 513.23 257 504 C 262.69 490.55 268.84 476.4 273 461 C 280.63 432.75 276.53 380.22 270 355 C 266.61 341.9 266.46 325.36 259 316 L 259 314 L 310 315 L 305 382 L 305 463 C 305 500.55 300.75 534.24 297 567 L 315 568 C 312.65 547.23 310.49 510.01 315 489 L 315 459 C 315 440.62 317.53 417.5 314 401 C 312.63 394.6 313.96 383.84 315 379 L 315 353 L 318 315 C 328.92 315.17 366.68 318.62 374 314 L 388 314 C 376.75 368.12 353.8 430.13 374 494 C 377.77 505.93 381.72 519.89 388 530 C 392.05 536.51 398.78 541.67 403 548 C 408.27 547.83 411.32 546.65 414 544 C 416.1 542.74 401.95 528.78 400 526 C 387.19 507.68 382.99 485.89 377 460 L 377 429 C 377.01 404.54 380.59 382.62 386 363 L 388 348 C 390.97 337.87 395.31 325.71 396 314 C 397.73 313.35 396.98 313.8 398 313 C 404.1 314.77 408.29 341.68 411 349 C 420.39 374.39 430.78 399.63 439 425 L 443 450 C 444.29 455.74 441.55 463.74 444 468 C 441.84 473.94 434.26 475.1 429 478 C 419.17 483.42 409.52 492.38 396 494 C 397.65 498.88 401.4 500.17 404 504 C 419.06 504.04 435.72 504.62 448 502 C 455.27 500.45 461.49 504.98 464 504 L 474 504 L 474 505 C 459.42 512.2 444.75 521.25 423 521 C 426.19 525.66 434.16 532.24 440 534 C 442.86 535.85 450.44 535.1 455 535 C 466.34 534.76 489.52 535.88 495 529 L 496 529 L 496 533 C 503.71 533.06 515.8 533.37 521 530 L 523 530 L 517 500 C 516.83 497.35 519.28 497.82 519 496 C 514.88 469.46 516.66 438.54 511 413 C 508.85 403.31 511.91 378.51 508 372 L 508 365 C 512.66 363.75 520.75 358.45 526 362 L 528 362 L 533 415 C 537.58 436.2 529.4 465.59 531 483 L 537 484 C 541.44 444.97 537.57 399.49 535 362 L 556 360 C 556.23 386.91 554.93 414.36 560 437 L 562 464 C 564.33 473.83 564.25 484.91 567 496 C 569.27 505.16 572.67 515.39 573 526 C 576.75 525.64 576.72 525.22 579 524 C 573.67 470.67 568.33 417.33 563 364 C 563.4 352.4 591.21 351.79 599 345 L 601 345 C 601.27 372.52 599.75 399.99 605 424 L 607 460 C 609.67 476.66 612.33 493.34 615 510 L 616 510 L 616 511 L 622 510 C 621.72 495.62 619.02 480.19 616 467 L 613 425 C 607.86 402.37 608 376.13 608 350 C 608 331.07 604.87 313.39 609 297 C 613.86 277.72 618.6 258.12 628 243 C 635.23 231.36 644.71 222.04 649 207 C 656.26 181.55 634.16 165 620 157 L 619 134 C 622.64 121.82 626.83 113.19 618 101 C 613.43 94.69 605.82 95.28 599 91 C 588.37 91.38 574.5 93.34 571 86 L 576 83 C 575.85 79.31 576.71 71.38 576 69 C 575.87 68.57 573 67 573 67 C 571.83 63.94 575.63 60.95 576 59 L 575 52 C 573.9 51.03 573.18 48.73 572 48 L 568 48 C 566.09 46.28 568.3 42.55 567 40 L 562 37 L 562 31 C 561.54 29.78 559.71 28.31 559 27 C 552.26 24.31 550.02 26.04 544 25 C 542.79 24.79 539.21 22.25 538 22 L 531 23 C 530.36 22.64 529.94 19.42 529 19 C 521.97 15.86 518.28 23.03 515 19 C 493.89 18.55 494.02 31.18 481 39 C 480.7 46.02 481.52 48.62 488 49 C 487.49 50.41 486.81 53.81 486 55 C 485.93 67.66 496.96 64.9 504 70 C 513.53 69.81 523.66 69.33 529 73 L 529 75 C 521.07 75.01 512.51 74.74 506 74 C 505.6 76.05 505.75 75.93 505 77 C 504.08 79.7 503.28 79.93 502 82 C 496.7 81.78 494.51 80.62 491 79 C 490.32 75.7 489.93 71.58 490 67 L 485 66 C 482.21 70.83 478.87 76.2 473 78 C 473.48 83.67 476.12 84.17 481 85 C 480.91 88.7 481.26 105.59 481 106 C 481.36 109.75 481.78 109.72 483 112 C 485.23 112.41 490.24 112.85 492 114 C 502.02 113.81 503.78 115.44 509 119 L 509 121 C 507.27 120.35 508.02 120.8 507 120 C 500.45 121.48 503.64 124.38 500 128 C 497.5 130.48 484.6 137.66 481 140 C 477.63 155.02 474.36 171.52 470 186 C 468.27 191.75 468.93 198.43 466 203 L 466 204 C 461.06 201.45 461.63 195.97 459 191 C 454.49 182.46 444.38 171.92 443 161 C 442.24 154.99 442.86 139.5 440 130 C 432.06 103.58 408.49 64.5 383 57 L 383 17 C 383.64 15.81 408.77 6.4 412 6 L 412 3 L 301 0 z M 368 22 L 370 22 L 370 49 L 358 45 C 357.23 40.06 354.68 33.68 352 30 C 355.04 24.4 362.63 25.34 368 22 z M 352 50 C 360.46 50.46 360.14 51.37 368 50 L 368 54 L 352 54 L 352 50 z M 342 52 L 345 52 L 345 53 L 346 53 C 344.19 56.2 339.63 56.65 337 59 L 335 59 C 336.55 54.84 339.53 54.99 342 52 z M 331 59 L 334 59 L 334 61 L 331 61 L 331 59 z M 381 61 C 384.17 61.57 383.91 61.88 386 63 L 386 64 C 381.9 63.51 382.59 63.73 381 61 z M 271 63 L 277 63 C 275.15 66.01 273.16 65.06 271 63 z M 259 64 L 262 64 C 259.98 69.69 253.99 71.29 250 75 L 248 75 C 249.96 69.39 255.16 67.68 259 64 z M 283 65 L 288 65 C 288.75 69.92 287.91 96.15 284 102 C 280.29 107.55 273.89 103.98 274 113 C 267.45 113.01 252.45 111.53 250 113 L 248 113 C 248.96 110.69 249.66 109.13 250 106 C 252.26 106.47 251.12 106.86 253 106 C 253.96 103.83 252.03 101.04 250 99 C 252.11 89.85 259.61 90.3 264 84 C 264.78 83.38 264.25 83.97 264 83 C 262.53 80.51 264.25 81.83 261 81 L 261 80 C 263.42 78.75 264.85 77.34 267 76 C 268.09 75.28 274.2 74.02 277 76 C 279.31 75.67 279.48 75.54 281 75 C 280.4 71.88 280.83 72.57 279 71 C 280.08 67.92 281.44 67.39 283 65 z M 346 67 C 350.87 67.15 351.7 68.03 355 69 C 354.35 70.73 354.8 69.98 354 71 C 350.99 73.17 349.09 71.18 346 73 C 343.57 74.32 345.29 72.53 344 75 L 343 75 C 345.27 79.88 353.85 82.12 359 84 C 359.74 83.13 360.26 82.87 361 82 C 361.78 81.38 361.25 81.97 361 81 C 362.75 77.61 366.75 80.35 370 76 L 373 77 C 373.72 79.04 374.04 81.68 374 85 C 377.7 86.34 381.12 87.4 384 89 C 376.46 98.54 357.4 96.14 347 103 C 338.68 101.27 339.77 86.51 335 81 L 335 78 L 340 79 L 340 76 C 336.65 75.49 337.35 75.53 334 76 C 333.37 73.77 333.26 73.36 332 72 L 332 70 C 337.32 70.09 337.03 69.99 337 73 C 339.34 73.62 340.13 74.16 342 75 L 342 74 L 343 74 C 341.68 71.57 343.47 73.29 341 72 C 342.35 69.28 344.25 69.18 346 67 z M 293 68 C 299.53 68.94 305.06 73.41 308 78 C 313.98 77.42 317.54 73 320 69 C 323.01 68.86 322.78 68.26 324 69 C 328.63 70.88 328.11 75.59 331 79 C 330.12 81.04 328.45 84.13 327 86 C 328 91.53 331.03 91.24 335 91 C 335.83 95.01 336.8 100.19 339 103 L 339 105 C 327.34 104.49 326.57 91.96 322 84 C 314.76 83.63 299.56 79.87 294 86 L 292 86 L 293 68 z M 379 68 L 379 71 L 378 71 L 378 70 L 376 70 C 377.47 67.51 375.75 68.83 379 68 z M 113 82 C 118.09 84.17 123.52 86.67 130 87 C 129.08 89.16 129.13 88.45 128 90 C 124.9 90.07 121.69 90.14 120 89 C 116.54 87.78 115.72 85.81 113 84 L 113 82 z M 392 91 C 395.99 91.79 395.62 92.89 399 94 L 400 105 C 401.79 105.54 404.62 104.38 406 105 L 406 106 C 409.37 108.52 418.83 116.71 420 121 C 424.95 121.42 428.42 120.87 432 120 C 434.1 125.49 434.65 135.08 438 140 L 438 145 C 429.86 142.18 427.8 133.27 423 127 L 423 126 C 419.97 127.08 420.04 126.92 419 130 C 418.09 131.66 418.8 132.58 419 136 C 413.73 135.14 410.51 132.83 406 131 C 403.37 119.62 399.02 101.46 391 95 C 391.33 92.69 391.46 92.52 392 91 z M 234 93 L 237 93 C 236.45 94.26 235.8 96.02 235 97 C 233.9 101.09 232.17 100.34 230 103 L 227 103 C 229.06 98.8 231.88 96.76 234 93 z M 383 95 C 394.91 96.42 394.62 118.35 401 126 L 401 129 C 397.77 127.65 395.07 126.92 390 127 C 390.61 133.31 397.64 135.89 403 137 C 404.5 144.85 402.48 156.99 407 164 C 404.72 170.16 367.9 180.17 358 181 C 356.65 156 351.92 126.69 344 108 C 356.21 103.39 373.88 102.97 383 95 z M 482 95 C 485.56 95.71 487.44 95.71 491 95 L 490 98 L 482 97 L 482 95 z M 301 102 C 307.89 102.46 309.02 105.11 315 106 L 315 107 L 316 107 L 316 109 C 307.62 109.46 300.76 110.36 296 106 L 295 106 C 296.5 103.58 299.16 103.97 301 102 z M 341 109 C 341.15 113.8 341.82 119.85 344 123 L 344 128 C 341.77 127.03 340.71 124.72 339 124 L 329 125 C 325.69 123.74 323.8 121.31 318 121 C 317.53 116.64 316.64 116.91 316 113 C 325.36 112.23 332.31 109.29 341 109 z M 222 113 C 227.76 113.83 230.67 115.81 237 116 C 237.92 117.08 236.92 116.09 238 117 C 236.95 126.57 236.62 130.51 231 136 C 228.49 132.1 230.09 122.15 229 120 L 229 118 L 227 118 C 227.12 121.89 229.09 125.09 229 127 C 228.93 128.38 225.15 130.51 226 133 C 226.2 133.59 228.37 134.15 229 138 C 231.53 138.11 232.71 138.12 234 139 C 234.76 140.08 234.63 139.92 235 142 C 226.57 140.79 219.2 137.5 210 137 C 211.43 130.4 213.25 120.78 217 116 L 217 114 C 219.16 114.92 218.45 114.87 220 116 L 222 113 z M 300.9082 130.8125 C 302.90888 130.80863 306.03688 131.0275 309 131 C 309.64 135.11 311.72 135.92 310 139 L 310 141 C 307.23 141.48 307.11 142.21 305 141 C 300.13 140.85 299.3 139.97 296 139 C 296.29 134.88 296.91 133.13 299 131 C 299.32187 130.8625 299.9988 130.81426 300.9082 130.8125 z M 247 138 C 251.04 138.42 250.92 139.11 254 140 C 254.63 142.23 254.74 142.64 256 144 L 256 152 C 251.68 148.94 243.93 147.15 239 145 L 239 140 C 242.16 140.18 240.4 138.27 242 141 C 246.12 140.63 245.73 141.24 247 138 z M 346 142 C 349.96 144.4 353.27 174.66 353 183 C 349.19 183.08 345.32 183.37 343 185 C 339.44 184.67 339.67 184.94 338 183 C 335.72 180.56 340.35 175.96 341 174 C 343.12 167.58 334.03 164.25 341 157 C 339.14 152.69 339 155.37 339 150 L 344 150 C 344.25 146.51 344.35 145.79 346 144 L 346 142 z M 255 153 C 258.01 156.67 263.46 163.84 265 168 C 268.67 177.89 262.97 183.28 270 191 L 270 192 C 262.07 192.11 252.65 191.96 244 191 C 243.56 179.47 241.14 166.86 239 155 C 242.78 153.95 251.6 156.7 255 153 z M 233 162 C 236.02 163.73 239.6 185.82 240 191 C 227.16 190.76 218.21 186.71 210 182 C 209.35 180.27 209.8 181.02 209 180 L 209 172 C 216.12 174.67 219.42 172.11 226 170 C 226.51 167.53 226.92 166.33 227 163 C 229.73 162.98 231.58 162.96 233 162 z M 620 165 C 630.45 170.3 648.91 184.49 643 205 C 640.92 212.23 634.69 218.92 631 225 C 620.3 242.61 606.61 269.87 604 294 C 603.28 292.9 598.42 269.08 599 268 L 602 267 C 607.01 259.36 610.13 245.69 611 235 C 613.67 233.84 619.47 232.97 622 231 C 636.62 219.6 635.41 189.06 619 181 C 618.93 175.61 618.68 168.86 620 165 z M 412 170 C 414.99 171.42 421.71 173.13 423 174 L 425 174 C 424.08 175.08 425.08 174.09 424 175 C 422.72 179.82 418.53 183.59 414 185 C 412.97 185.81 413.75 185.37 412 186 C 411.08 184.92 412.08 185.91 411 185 C 410.97 179.6 411.21 174.02 412 170 z M 405 172 L 407 172 C 407.11 175.69 407.44 180.85 406 183 C 404.2 186.69 400.3 187.69 398 191 C 393.46 191.41 391.81 192.8 390 190 C 384.47 191.25 385.43 194.34 382 197 C 379.38 199.03 374.95 198.1 372 200 C 369.17 201.82 367.99 205.95 365 208 L 365 213 C 362.95 213.4 363.07 213.25 362 214 C 359.48 212.62 357.34 204.62 360 201 C 361.26 198.13 371.16 191.09 375 189 L 375 186 C 370.06 186.55 365.49 187.97 363 191 C 360.44 189.61 360.34 188.54 360 185 C 370.83 183.57 397.49 176.92 405 172 z M 184 176 L 186 176 C 184.42 179.91 183.47 185.77 181 189 L 181 190 C 178.26 189.15 175.82 187.8 174 186 C 172.92 185.08 173.91 186.08 173 185 L 184 176 z M 25 185 C 28.25 189.08 31.4 212.39 32 219 C 29.27 219.57 26.82 220.02 23 220 C 19.53 216.63 16.37 213.47 13 210 C 12.95 195.07 18.84 192.85 25 185 z M 211 188 C 214.33 189.57 219.84 190.79 223 193 C 227.27 194.03 227.38 200.83 231 205 L 231 206 C 231.69 206.89 232.91 204.1 233 204 C 233.92 202.28 231.07 197.86 229 196 L 229 194 C 233.12 194.53 238.43 195.42 241 195 C 248.09 211.9 253.86 231.07 266 243 L 266 245 L 259 244 C 258.79 240.59 258.52 238.89 257 237 C 255.17 234.27 244.05 228.08 241 227 C 237.19 225.65 230.19 227.5 229 227 C 218.2 219.41 218.86 201.71 211 191 L 211 188 z M 350 190 C 353.13 190.72 352.1 190.66 354 192 C 352.53 194.49 354.25 193.17 351 194 C 350.6 191.95 350.75 192.07 350 191 L 350 190 z M 328 191 C 335.4 191 337.65 192.51 342 195 C 339.02 203.56 332.89 201.91 330 206 L 330 212 C 329.58 212.65 327.69 212.98 327 214 C 321.67 213.41 321.77 211.6 318 210 C 317.26 206.42 316.22 202.8 315 200 C 316.35 199 316.81 198.07 318 197 C 319.83 195.71 324.32 195.21 327 195 L 328 191 z M 617 191 L 619 191 C 622.58 197.86 625.31 202.4 625 214 C 623.47 215.54 622.06 218.09 621 220 C 617.91 220.74 616.5 221.6 613 222 L 617 191 z M 345 192 L 346 192 L 346 193 L 348 193 C 346.53 195.49 348.25 194.17 345 195 L 345 192 z M 247 196 C 249.59 196.47 251.05 196.59 252 197 L 277 197 C 280.46 198.7 279.56 205.4 280 206 C 280.18 206.24 294.21 214.73 295 215 C 296.36 215.1 296.41 215.25 298 213 C 300.32 213.74 300.23 214.04 302 215 C 305.45 223.55 308.9 243.89 315 249 C 314.35 250.73 314.8 249.98 314 251 C 308.14 254.87 292.29 251.71 288 254 C 277.68 254 277.62 249.26 273 244 C 262.76 232.35 249.03 214.83 247 196 z M 346 199 C 352.56 199.26 351.06 201 355 203 L 355 217 C 350.93 216 350.7 213.99 350 210 C 344.97 210.15 343.61 211.1 340 212 C 339.08 210.92 340.08 211.91 339 211 C 339.17 199.52 342.91 205.81 346 199 z M 437 202 C 441.2 211.72 447.63 224.06 449 235 L 422 231 C 422.6 227.95 433.97 206.27 436 204 C 436.65 202.27 436.2 203.02 437 202 z M 210 206 L 212 206 C 213.99 213.78 219.16 224.81 225 229 C 224.35 230.73 224.8 229.98 224 231 C 218.45 234.78 209.34 231.76 202 234 C 192.4 236.93 180.28 238.63 170 242 C 164.9 243.67 160.5 246.63 154 247 C 153.18 239.66 153.66 224.77 150 219 L 150 218 C 158.55 220.19 190.56 231.68 201 224 C 206.12 221.7 209.32 212.42 210 206 z M 363 219 L 366 219 C 367.98 225.65 363.6 231 368 236 C 370.26 239.35 373.43 236.77 377 239 L 378 239 L 378 240 L 377 240 C 373.33 242.9 365.84 242.22 362 245 C 359.69 244.67 359.52 244.54 358 244 L 360 227 C 360.26 221.9 361.16 221.92 363 219 z M 489 219 C 494.75 221.96 495.26 232.86 499 238 L 499 240 C 494.69 239.99 487.89 239.9 485 238 L 478 238 C 480.33 231.1 485.87 225.71 489 219 z M 343.6582 219.61523 C 345.05771 219.62038 346.2275 219.73375 347 220 C 349.1 220.72 351.34 222.53 355 223 C 355.12 227.1 355.64 233.52 354 236 L 354 246 L 326 251 C 312.65 250.76 314.42 231.39 309 223 L 309 221 L 326 222 C 327.2025 221.60187 337.59365 219.59292 343.6582 219.61523 z M 230 239 C 232.93 239.93 233.8 240.31 235 243 L 236 243 C 233.84 246.36 225.86 245.41 222 247 C 210.99 251.52 198.04 259.67 185 261 L 185 263 L 221 274 C 229.35 272.88 250.2 259.51 259 262 C 262.04 262.86 265.26 266.75 268 268 C 276.85 272.06 286.43 275.17 296 278 C 337.01 290.12 394.48 267.5 412 241 C 429.12 241.89 459.93 248.99 469 258 L 470 258 L 470 259 L 469 259 C 468.14 262.18 467.02 264.08 465 266 C 462.65 267.55 441.44 256.71 437 255 C 432.04 253.09 403.22 260.03 399 263 L 397 263 C 399.42 265.33 434.16 280.45 438 281 C 440.4 281.34 461.08 274.42 463 273 C 466.09 273.05 468.13 273.35 470 274 L 470 275 C 431.49 293.75 377.11 298 320 298 C 290.05 298 259.98 298.57 235 293 L 220 292 C 194.77 286.02 176.19 284.09 160 269 C 160.02 266.27 160.04 264.42 161 263 C 165.64 249.6 201.4 245.19 217 241 C 221.3 239.85 226.65 240.96 230 239 z M 394 240 L 396 240 C 396.55 241.52 396.71 241.67 397 244 L 402 244 C 398.81 252.85 386.5 255.2 381 262 L 379 262 C 380.97 252.91 391.07 249.15 394 240 z M 383 243 L 387 243 L 387 244 L 386 244 C 380.82 258.93 364.22 262.1 354 272 L 352 272 C 353.1 265.05 355.95 255.03 359 249 C 366.26 248.69 378.19 246.69 383 243 z M 349 251 L 353 251 C 351.58 257.53 349.7 263.95 347 269 C 341.77 268.8 335.15 266.99 332 269 C 327.61 267.04 323.65 260.67 323 255 C 330.75 254.93 343.61 254.53 349 251 z M 315 256 L 318 256 C 319.47 261.67 322.87 267.86 327 271 C 325.73 272.68 324.27 273.32 323 275 C 307.77 272.87 299.69 263.87 288 260 L 288 258 C 294.99 258.1 310.84 258.66 315 256 z M 272 258 C 281.79 258.1 293.22 267.07 299 272 L 300 272 L 300 274 C 288.91 272.3 273.06 267.55 266 261 L 265 261 L 265 259 C 266.73 259.65 265.98 259.2 267 260 C 270.56 259.67 270.33 259.94 272 258 z M 601 297 L 603 297 C 602.59 299.14 602.09 303.37 601 305 L 601 316 L 599 316 L 599 315 L 598 315 C 598.67 309.27 599.33 301.83 601 297 z M 48 352 C 59.6 353.63 70.39 357.16 84 357 L 82 391 C 81.81 396.62 83.37 406.19 81 410 L 81 412 L 64 411 C 63.98 406.07 63.75 396.48 66 393 C 64.36 384.64 56.05 387.67 50 384 L 48 384 L 48 352 z M 117 355 C 125.03 355.76 131.1 359.78 137 363 L 135 416 L 115 414 C 118.36 403.33 117.16 370.34 117 355 z M 108 356 C 108.99 368.16 109 383.31 109 397 C 109 401.84 109.98 409.88 108 413 C 105.86 414 95.37 413.1 90 413 C 90.01 407.35 91.33 373.67 93 371 C 92.93 366.15 92.84 360.37 94 357 C 98.67 356.67 103.33 356.33 108 356 z M 28.759766 396.96289 C 32.589453 396.96242 36.4725 397.13 39 398 L 39 411 C 31.42 411.08 20.9 412 15 410 C 15.02 402.93 16.48 401.88 19 398 C 21.73 397.98 23.58 397.96 25 397 C 26.2125 396.9825 27.483203 396.96305 28.759766 396.96289 z M 48 399 L 49 399 L 49 400 L 52 401 C 52.34 404.64 53.05 406.09 51 409 L 51 411 L 47 411 C 47.02 408.27 47.04 406.42 48 405 L 48 399 z M 68 441 C 69.73 441.65 68.98 441.2 70 442 C 74.35 447.52 73.05 458.09 77 464 L 77 467 C 66.9 469.44 55.62 473.07 46 476 C 39.44 478 32.11 477.55 27 481 C 22.33 475.23 21.62 462.21 19 455 L 68 441 z M 86.330078 483.99609 C 99.674411 484.11781 100.61594 489.08312 107 496 C 107.03 498.91 107.05 501.45 106 503 C 105.22 512.39 93 519.7 82 515 C 78.49 513.5 76 509.25 73 507 L 72 496 C 75.45 492.44 78.59 488.54 82 485 C 84.05 484.6 83.93 484.75 85 484 C 85.456875 483.99375 85.899616 483.99217 86.330078 483.99609 z " />
  <g
     id="g60"
     style="display:inline;fill:#00ffff" />
</svg>
